# xmcd
#
# Track frame offsets: 
#        150
#        17339
#        33534
#        47683
#        64098
#        84010
#        97073
#        103544
#
# Disc length: 1541 seconds
#
# Revision: 0
# Processed by: cddbd v1.5.2PL0 Copyright (c) Steve Scherf et al.
# Submitted via: ExactAudioCopy v1.0b1
#
DISCID=56060308
DTITLE=Blues B.R. Others - The Blues B.R. Others show from hungary
DYEAR=1900
DGENRE=
TTITLE0=She caught the KT
TTITLE1=Baby I love you
TTITLE2=Americano
TTITLE3=Think
TTITLE4=Kiss
TTITLE5=Soulman
TTITLE6=BBRO Theme
TTITLE7=Ain't got you
EXTD=
EXTT0=
EXTT1=
EXTT2=
EXTT3=
EXTT4=
EXTT5=
EXTT6=
EXTT7=
PLAYORDER=
